<svg width="33" height="33" viewBox="0 0 33 33" fill="none" xmlns="http://www.w3.org/2000/svg">
<g clip-path="url(#clip0_1178_15060)">
<path d="M31.3201 5.07H29.8001V3.55H28.2701V2.02H26.7501V0.5H3.8901V6.6H5.4201V8.12H6.9401V6.6H25.2301V8.12H26.7501V23.36H25.2301V24.88H23.7001V26.4H3.8901V24.88H2.3701V26.4H0.850098V32.5H2.3701V27.93H22.1801V32.5H32.8501V6.6H31.3201V5.07ZM6.9401 5.07H5.4201V2.02H6.9401V5.07ZM9.9901 5.07H8.4601V2.02H9.9901V5.07ZM23.7001 5.07H11.5101V2.02H23.7001V5.07ZM31.3201 15.74H29.8001V8.12H28.2701V6.6H26.7501V5.07H25.2301V3.55H26.7501V5.07H28.2701V6.6H29.8001V8.12H31.3201V15.74Z" fill="#BFFB4F"/>
<path d="M22.1801 15.7402H20.6501V17.2602H22.1801V15.7402Z" fill="#BFFB4F"/>
<path d="M22.1801 23.3599H17.6101V24.8799H22.1801V23.3599Z" fill="#BFFB4F"/>
<path d="M20.6501 12.6899H19.1301V14.2099H20.6501V12.6899Z" fill="#BFFB4F"/>
<path d="M20.6501 32.5002V29.4502H16.0801V32.5002H17.6101V30.9802H19.1301V32.5002H20.6501Z" fill="#BFFB4F"/>
<path d="M20.6501 17.2598H14.5601V18.7898H20.6501V17.2598Z" fill="#BFFB4F"/>
<path d="M16.0801 12.6899H14.5601V14.2099H16.0801V12.6899Z" fill="#BFFB4F"/>
<path d="M14.56 15.7402H13.04V17.2602H14.56V15.7402Z" fill="#BFFB4F"/>
<path d="M13.04 23.3599H11.51V24.8799H13.04V23.3599Z" fill="#BFFB4F"/>
<path d="M25.23 21.8301V9.64014H9.98999V21.8301H25.23ZM11.51 11.1701H23.7V20.3101H11.51V11.1701Z" fill="#BFFB4F"/>
<path d="M9.99021 23.3599H8.46021V24.8799H9.99021V23.3599Z" fill="#BFFB4F"/>
<path d="M8.46019 8.12012H6.94019V21.8301H8.46019V8.12012Z" fill="#BFFB4F"/>
<path d="M6.94017 21.8301H5.42017V23.3601H6.94017V21.8301Z" fill="#BFFB4F"/>
<path d="M5.42014 23.3599H3.89014V24.8799H5.42014V23.3599Z" fill="#BFFB4F"/>
</g>
<defs>
<clipPath id="clip0_1178_15060">
<rect width="32" height="32" fill="white" transform="translate(0.850098 0.5)"/>
</clipPath>
</defs>
</svg>
