<svg width="33" height="33" viewBox="0 0 33 33" fill="none" xmlns="http://www.w3.org/2000/svg">
<g clip-path="url(#clip0_1178_12248)">
<path d="M32.1704 8.91968H30.6504V16.5397H32.1704V8.91968Z" fill="#BFFB4F"/>
<path d="M30.6504 16.5396H29.1204V19.5896H30.6504V16.5396Z" fill="#BFFB4F"/>
<path d="M30.6504 5.86963H29.1204V8.91963H30.6504V5.86963Z" fill="#BFFB4F"/>
<path d="M29.1204 19.5896H27.6004V21.1096H29.1204V19.5896Z" fill="#BFFB4F"/>
<path d="M29.1204 4.34961H27.6004V5.86961H29.1204V4.34961Z" fill="#BFFB4F"/>
<path d="M27.6004 21.1096H26.0704V22.6396H27.6004V21.1096Z" fill="#BFFB4F"/>
<path d="M27.6004 11.9695H26.0704V18.0595H27.6004V11.9695Z" fill="#BFFB4F"/>
<path d="M26.0704 22.6396H24.5504V24.1596H26.0704V22.6396Z" fill="#BFFB4F"/>
<path d="M26.0704 18.0596H24.5504V19.5896H26.0704V18.0596Z" fill="#BFFB4F"/>
<path d="M27.6004 2.82959H24.5504V4.34959H27.6004V2.82959Z" fill="#BFFB4F"/>
<path d="M24.5504 24.1597H23.0304V25.6797H24.5504V24.1597Z" fill="#BFFB4F"/>
<path d="M24.5504 19.5896H23.0304V21.1096H24.5504V19.5896Z" fill="#BFFB4F"/>
<path d="M26.0704 10.4495H21.5004V11.9695H26.0704V10.4495Z" fill="#BFFB4F"/>
<path d="M23.0304 25.6794H21.5004V27.2094H23.0304V25.6794Z" fill="#BFFB4F"/>
<path d="M21.5004 27.2095H19.9804V28.7295H21.5004V27.2095Z" fill="#BFFB4F"/>
<path d="M23.0304 21.1096H16.9304V22.6396H23.0304V21.1096Z" fill="#BFFB4F"/>
<path d="M21.5004 11.9695H19.9804V13.4895H21.5004V11.9695Z" fill="#BFFB4F"/>
<path d="M19.9804 8.91961H23.0304V7.39961H24.5504V5.86961H23.0304V4.34961H19.9804V5.86961H18.4604V7.39961H19.9804V8.91961Z" fill="#BFFB4F"/>
<path d="M19.9804 28.7295H18.4604V30.2495H19.9804V28.7295Z" fill="#BFFB4F"/>
<path d="M19.9804 13.4895H18.4604V15.0195H19.9804V13.4895Z" fill="#BFFB4F"/>
<path d="M18.4604 15.0195H16.9304V16.5395H18.4604V15.0195Z" fill="#BFFB4F"/>
<path d="M18.4604 30.2495H9.31042V31.7795H18.4604V30.2495Z" fill="#BFFB4F"/>
<path d="M16.9304 16.5396H15.4104V21.1096H16.9304V16.5396Z" fill="#BFFB4F"/>
<path d="M24.5504 1.29956H13.8804V2.82956H24.5504V1.29956Z" fill="#BFFB4F"/>
<path d="M15.4104 22.6396H12.3604V24.1596H10.8404V27.2096H12.3604V28.7296H15.4104V27.2096H16.9304V24.1596H15.4104V22.6396Z" fill="#BFFB4F"/>
<path d="M13.8804 2.82959H10.8404V4.34959H13.8804V2.82959Z" fill="#BFFB4F"/>
<path d="M10.8404 13.4897H13.8804V11.9697H15.4104V8.91966H13.8804V7.39966H10.8404V8.91966H9.31042V11.9697H10.8404V13.4897Z" fill="#BFFB4F"/>
<path d="M6.27042 21.1095H9.31042V19.5895H10.8404V16.5395H9.31042V15.0195H6.27042V16.5395H4.74042V19.5895H6.27042V21.1095Z" fill="#BFFB4F"/>
<path d="M10.8404 4.34961H7.79044V5.86961H10.8404V4.34961Z" fill="#BFFB4F"/>
<path d="M9.31044 28.7295H7.79044V30.2495H9.31044V28.7295Z" fill="#BFFB4F"/>
<path d="M7.79042 27.2095H4.74042V28.7295H7.79042V27.2095Z" fill="#BFFB4F"/>
<path d="M7.79042 5.86963H6.27042V7.39963H7.79042V5.86963Z" fill="#BFFB4F"/>
<path d="M6.27042 7.39966H4.74042V10.4497H6.27042V7.39966Z" fill="#BFFB4F"/>
<path d="M4.74043 24.1597H3.22043V27.2097H4.74043V24.1597Z" fill="#BFFB4F"/>
<path d="M4.74043 10.4495H3.22043V13.4895H4.74043V10.4495Z" fill="#BFFB4F"/>
<path d="M3.22043 13.4895H1.69043V24.1595H3.22043V13.4895Z" fill="#BFFB4F"/>
</g>
<defs>
<clipPath id="clip0_1178_12248">
<rect width="32" height="32" fill="white" transform="translate(0.93042 0.539551)"/>
</clipPath>
</defs>
</svg>
