<svg width="33" height="33" viewBox="0 0 33 33" fill="none" xmlns="http://www.w3.org/2000/svg">
<g clip-path="url(#clip0_1178_8870)">
<path d="M1.6201 9.64005H30.5801V29.4501H32.1001V3.55005H30.5801V8.12005H1.6201V3.55005H0.100098V29.4501H1.6201V9.64005Z" fill="#BFFB4F"/>
<path d="M30.5801 29.45H1.62012V30.9799H30.5801V29.45Z" fill="#BFFB4F"/>
<path d="M4.6701 12.6899V26.4099H27.5301V12.6899H4.6701ZM13.8101 20.3099H12.2901V21.8299H10.7701V23.3599H9.24011V21.8299H10.7701V20.3099H12.2901V18.7899H10.7701V17.2599H9.24011V15.7399H10.7701V17.2599H12.2901V18.7899H13.8101V20.3099ZM22.9601 20.3099H16.8601V18.7899H22.9601V20.3099Z" fill="#BFFB4F"/>
<path d="M10.7701 5.07007H9.24011V6.60007H10.7701V5.07007Z" fill="#BFFB4F"/>
<path d="M7.72007 5.07007H6.20007V6.60007H7.72007V5.07007Z" fill="#BFFB4F"/>
<path d="M4.67009 5.07007H3.15009V6.60007H4.67009V5.07007Z" fill="#BFFB4F"/>
<path d="M30.5801 2.02002H1.62012V3.55002H30.5801V2.02002Z" fill="#BFFB4F"/>
</g>
<defs>
<clipPath id="clip0_1178_8870">
<rect width="32" height="32" fill="white" transform="translate(0.100098 0.5)"/>
</clipPath>
</defs>
</svg>
