<svg width="33" height="33" viewBox="0 0 33 33" fill="none" xmlns="http://www.w3.org/2000/svg">
<g clip-path="url(#clip0_1178_11241)">
<path d="M32.8501 6.6001H31.3201V26.4001H32.8501V6.6001Z" fill="#BFFB4F"/>
<path d="M31.32 26.4001H29.8V27.9301H31.32V26.4001Z" fill="#BFFB4F"/>
<path d="M31.32 5.07007H29.8V6.60007H31.32V5.07007Z" fill="#BFFB4F"/>
<path d="M29.8002 8.12012H28.2802V11.1701H29.8002V8.12012Z" fill="#BFFB4F"/>
<path d="M29.8001 27.9299H3.90015V29.4499H29.8001V27.9299Z" fill="#BFFB4F"/>
<path d="M28.2801 23.3601H26.7501V24.8801H28.2801V23.3601Z" fill="#BFFB4F"/>
<path d="M28.2801 11.1702H26.7501V12.6902H28.2801V11.1702Z" fill="#BFFB4F"/>
<path d="M26.7501 21.8301H25.2301V23.3601H26.7501V21.8301Z" fill="#BFFB4F"/>
<path d="M26.7501 12.6899H25.2301V14.2099H26.7501V12.6899Z" fill="#BFFB4F"/>
<path d="M25.2301 20.3101H23.7001V21.8301H25.2301V20.3101Z" fill="#BFFB4F"/>
<path d="M25.2301 14.21H23.7001V15.74H25.2301V14.21Z" fill="#BFFB4F"/>
<path d="M23.7001 18.79H22.1801V20.31H23.7001V18.79Z" fill="#BFFB4F"/>
<path d="M23.7001 15.74H22.1801V17.26H23.7001V15.74Z" fill="#BFFB4F"/>
<path d="M22.1801 17.26H19.1301V18.79H22.1801V17.26Z" fill="#BFFB4F"/>
<path d="M19.1301 18.79H14.5601V20.31H19.1301V18.79Z" fill="#BFFB4F"/>
<path d="M14.5601 17.26H11.5101V18.79H14.5601V17.26Z" fill="#BFFB4F"/>
<path d="M11.5101 18.79H9.99011V20.31H11.5101V18.79Z" fill="#BFFB4F"/>
<path d="M11.5101 15.74H9.99011V17.26H11.5101V15.74Z" fill="#BFFB4F"/>
<path d="M9.99009 20.3101H8.47009V21.8301H9.99009V20.3101Z" fill="#BFFB4F"/>
<path d="M9.99009 14.21H8.47009V15.74H9.99009V14.21Z" fill="#BFFB4F"/>
<path d="M8.47006 21.8301H6.94006V23.3601H8.47006V21.8301Z" fill="#BFFB4F"/>
<path d="M8.47006 12.6899H6.94006V14.2099H8.47006V12.6899Z" fill="#BFFB4F"/>
<path d="M6.94004 23.3601H5.42004V24.8801H6.94004V23.3601Z" fill="#BFFB4F"/>
<path d="M6.94004 11.1702H5.42004V12.6902H6.94004V11.1702Z" fill="#BFFB4F"/>
<path d="M29.8001 3.55005H3.90015V5.07005H29.8001V3.55005Z" fill="#BFFB4F"/>
<path d="M5.42015 8.12012H3.90015V11.1701H5.42015V8.12012Z" fill="#BFFB4F"/>
<path d="M3.90012 26.4001H2.37012V27.9301H3.90012V26.4001Z" fill="#BFFB4F"/>
<path d="M3.90012 5.07007H2.37012V6.60007H3.90012V5.07007Z" fill="#BFFB4F"/>
<path d="M2.3701 6.6001H0.850098V26.4001H2.3701V6.6001Z" fill="#BFFB4F"/>
</g>
<defs>
<clipPath id="clip0_1178_11241">
<rect width="32" height="32" fill="white" transform="translate(0.850098 0.5)"/>
</clipPath>
</defs>
</svg>
