<svg width="33" height="33" viewBox="0 0 33 33" fill="none" xmlns="http://www.w3.org/2000/svg">
<g clip-path="url(#clip0_1178_13617)">
<path d="M32.8501 3.55005H31.3201V29.4501H32.8501V3.55005Z" fill="#BFFB4F"/>
<path d="M31.32 29.45H29.8V30.9799H31.32V29.45Z" fill="#BFFB4F"/>
<path d="M31.32 2.02002H29.8V3.55002H31.32V2.02002Z" fill="#BFFB4F"/>
<path d="M29.8001 5.07007H28.2701V27.9301H29.8001V5.07007Z" fill="#BFFB4F"/>
<path d="M29.8001 30.98H3.89014V32.5H29.8001V30.98Z" fill="#BFFB4F"/>
<path d="M28.27 27.9299H5.42004V29.4499H28.27V27.9299Z" fill="#BFFB4F"/>
<path d="M23.7001 15.74H22.1801V14.21H19.1301V15.74H17.6101V14.21H14.5601V23.36H17.6101V18.79H19.1301V17.26H20.6601V18.79H22.1801V23.36H25.2301V17.26H23.7001V15.74Z" fill="#BFFB4F"/>
<path d="M11.5101 14.21H8.46008V23.36H11.5101V14.21Z" fill="#BFFB4F"/>
<path d="M11.5101 9.63989H8.46008V12.6899H11.5101V9.63989Z" fill="#BFFB4F"/>
<path d="M28.27 3.55005H5.42004V5.07005H28.27V3.55005Z" fill="#BFFB4F"/>
<path d="M29.8001 0.5H3.89014V2.02H29.8001V0.5Z" fill="#BFFB4F"/>
<path d="M5.42014 5.07007H3.89014V27.9301H5.42014V5.07007Z" fill="#BFFB4F"/>
<path d="M3.89012 29.45H2.37012V30.9799H3.89012V29.45Z" fill="#BFFB4F"/>
<path d="M3.89012 2.02002H2.37012V3.55002H3.89012V2.02002Z" fill="#BFFB4F"/>
<path d="M2.3701 3.55005H0.850098V29.4501H2.3701V3.55005Z" fill="#BFFB4F"/>
</g>
<defs>
<clipPath id="clip0_1178_13617">
<rect width="32" height="32" fill="white" transform="translate(0.850098 0.5)"/>
</clipPath>
</defs>
</svg>
